Coordinates
version=1
nRows=17
nColumns=40
inDegrees=yes

Units are S.I. units (second, meters, Newtons, ...)
Angles are in degrees.

endheader
time	pelvis_tilt	pelvis_list	pelvis_rotation	pelvis_tx	pelvis_ty	pelvis_tz	hip_flexion_r	hip_adduction_r	hip_rotation_r	knee_angle_r	knee_angle_r_beta	ankle_angle_r	subtalar_angle_r	mtp_angle_r	hip_flexion_l	hip_adduction_l	hip_rotation_l	knee_angle_l	knee_angle_l_beta	ankle_angle_l	subtalar_angle_l	mtp_angle_l	lumbar_extension	lumbar_bending	lumbar_rotation	arm_flex_r	arm_add_r	arm_rot_r	elbow_flex_r	pro_sup_r	wrist_flex_r	wrist_dev_r	arm_flex_l	arm_add_l	arm_rot_l	elbow_flex_l	pro_sup_l	wrist_flex_l	wrist_dev_l
     41.80000000	     -7.21675407	     -4.83317227	     -3.31242484	      0.96280234	      0.93305695	      0.42207085	     38.32558279	     -8.32279593	     -6.70554847	     70.86201713	     70.86201713	      5.45297624	    -14.62214899	      0.45274619	     15.33069605	     -5.18622225	    -10.53889979	     18.65930172	     18.65930172	     13.61100688	     -2.79550586	     -3.40062776	    -10.52683504	      3.07254912	      2.18239875	      7.18082726	    -14.28451647	     -2.33428255	     79.68769341	     44.91399167	      0.00000000	      0.00000000	     14.87782138	    -16.55597482	      8.74772639	     44.90635898	     45.65422822	      0.00000000	      0.00000000
     41.81142857	     -7.07832844	     -4.89592861	     -3.32788979	      0.96181849	      0.93329036	      0.42153199	     38.95514804	     -8.20552913	     -6.75534786	     69.39610151	     69.39610151	      5.36563227	    -14.45536447	      0.34623548	     14.40950703	     -5.16145095	    -10.70030736	     18.22250945	     18.22250945	     13.93739862	     -2.38578766	     -3.55308802	    -10.75597543	      3.22221972	      2.71262703	      4.98321140	    -14.65363689	     -2.89515936	     75.75018022	     45.06041363	      0.00000000	      0.00000000	     16.60668300	    -16.69627445	      8.51700347	     46.96592503	     45.73002225	      0.00000000	      0.00000000
     41.82285714	     -7.00809936	     -4.96937614	     -3.34498057	      0.96080499	      0.93335984	      0.42108767	     39.55499054	     -8.05970329	     -6.83144984	     67.79378135	     67.79378135	      5.18457600	    -14.31591580	     -0.02135532	     13.58677283	     -5.15680271	    -10.84376410	     17.80284599	     17.80284599	     14.20096067	     -2.06184771	     -3.77990876	    -10.83730024	      3.35290255	      2.65590932	      3.86983189	    -14.13730462	     -4.37183386	     69.79606629	     45.31131699	      0.00000000	      0.00000000	     17.75702344	    -17.33035971	      8.43636959	     49.88781088	     45.80880920	      0.00000000	      0.00000000
     41.83428571	     -6.90463009	     -5.01677124	     -3.33687783	      0.95984453	      0.93346083	      0.42060441	     39.99024326	     -7.93745676	     -6.93937267	     65.99070939	     65.99070939	      4.93746392	    -14.15348475	     -0.28912485	     12.74392441	     -5.09880811	    -10.88789720	     17.38314220	     17.38314220	     14.40948207	     -1.87852512	     -3.97877283	    -10.98069155	      3.44625573	      2.51558137	      3.12039889	    -13.77877352	     -5.43739445	     63.67914478	     45.55207515	      0.00000000	      0.00000000	     18.65833635	    -17.98394045	      8.15141469	     53.10193319	     45.92453994	      0.00000000	      0.00000000
     41.84571429	     -6.83366094	     -5.02921760	     -3.38729983	      0.95886887	      0.93342115	      0.42022852	     40.39636601	     -7.81254637	     -7.03003939	     64.05350310	     64.05350310	      4.75048934	    -13.88706756	     -0.31368907	     11.91812835	     -5.01089353	    -10.96053401	     16.93368491	     16.93368491	     14.61892713	     -1.72457822	     -4.19014200	    -11.10926423	      3.49209751	      2.49586230	      2.48638799	    -13.58112609	     -6.34877289	     57.63889978	     45.78119954	      0.00000000	      0.00000000	     19.61789575	    -18.47784122	      7.57553365	     56.18831570	     46.06987812	      0.00000000	      0.00000000
     41.85714286	     -6.77493993	     -4.95819614	     -3.46842075	      0.95783069	      0.93318941	      0.41989788	     40.77631703	     -7.71686265	     -7.04338655	     61.99361306	     61.99361306	      4.62651341	    -13.51978556	     -0.09803476	     11.12398329	     -4.84004086	    -11.07301077	     16.50412524	     16.50412524	     14.87784356	     -1.56820612	     -4.28128880	    -11.28537295	      3.53291979	      3.15219372	      0.65038331	    -14.00774265	     -6.60208975	     54.18793756	     45.89849834	      0.00000000	      0.00000000	     21.24090843	    -18.35658389	      7.10949583	     58.48650540	     46.16539408	      0.00000000	      0.00000000
     41.86857143	     -6.81497102	     -4.86827192	     -3.52775865	      0.95684703	      0.93280869	      0.41969124	     41.11686965	     -7.61015051	     -7.10288916	     59.66997239	     59.66997239	      4.42339344	    -13.12578181	     -0.05716264	     10.42598592	     -4.65096474	    -11.12343569	     16.02713482	     16.02713482	     14.98365834	     -1.44656922	     -4.61095214	    -11.27732449	      3.48308360	      2.50743972	      1.33556271	    -13.27816893	     -8.36246103	     46.31006255	     46.22774064	      0.00000000	      0.00000000	     21.40764424	    -19.29229738	      6.25051060	     62.44137670	     46.34393082	      0.00000000	      0.00000000
     41.88000000	     -6.84055010	     -4.81548962	     -3.59654089	      0.95589091	      0.93235257	      0.41958720	     41.30092891	     -7.46808325	     -7.29106513	     57.10160521	     57.10160521	      4.27145836	    -12.59946217	      0.23954046	      9.72043741	     -4.51518789	    -11.19135823	     15.59191847	     15.59191847	     15.24110366	     -1.26284998	     -4.67389981	    -11.38012123	      3.56743987	      3.14969792	     -0.69400728	    -13.76183123	     -8.46676109	     44.01620179	     46.30038335	      0.00000000	      0.00000000	     22.91724685	    -19.00403177	      5.78173130	     64.58885679	     46.42940602	      0.00000000	      0.00000000
     41.89142857	     -6.89622926	     -4.53332250	     -3.72452529	      0.95495685	      0.93171117	      0.41967864	     41.47718847	     -7.45005876	     -7.30774813	     54.34771181	     54.34771181	      3.92557150	    -12.14404677	      0.10202331	      9.03829494	     -4.16021298	    -11.44554813	     15.12986148	     15.12986148	     15.34582702	     -0.98242899	     -5.09506884	    -11.40032305	      3.25934215	      2.70329142	     -0.09791886	    -13.33530797	    -10.04225092	     36.82286644	     46.62394299	      0.00000000	      0.00000000	     22.85024699	    -19.99950489	      5.00667511	     69.42028129	     46.60476619	      0.00000000	      0.00000000
     41.90285714	     -7.01420044	     -4.47552601	     -3.76736811	      0.95414479	      0.93094505	      0.41984209	     41.46191871	     -7.25635218	     -7.62906125	     51.28253084	     51.28253084	      3.78628178	    -11.48211079	      0.44878677	      8.43477765	     -4.04283507	    -11.48038919	     14.71407827	     14.71407827	     15.62661360	     -0.78493797	     -5.16962235	    -11.35161880	      3.36453205	      3.13132992	     -2.08598531	    -13.68459459	    -10.16293914	     35.12373204	     46.67877003	      0.00000000	      0.00000000	     24.21301921	    -19.77350272	      4.44693026	     71.42325830	     46.69153230	      0.00000000	      0.00000000
     41.91428571	     -7.00847879	     -4.20123107	     -3.88181107	      0.95352847	      0.93021982	      0.42011190	     41.23590621	     -7.20019095	     -7.84035113	     48.03872635	     48.03872635	      3.55448752	    -10.73550038	      0.72138429	      7.65388654	     -3.69902235	    -11.75859762	     14.24574244	     14.24574244	     15.84750727	     -0.42576090	     -5.31458710	    -11.46610500	      3.11962084	      3.93629167	     -3.89943129	    -13.96893964	    -10.40260744	     32.62254591	     46.77383408	      0.00000000	      0.00000000	     25.30644771	    -19.30743435	      3.96711403	     74.71335972	     46.79629455	      0.00000000	      0.00000000
     41.92571429	     -7.15666507	     -3.89008884	     -3.94139799	      0.95298147	      0.92912211	      0.42060168	     40.99339476	     -7.14064457	     -8.14134934	     44.54259983	     44.54259983	      2.97799619	    -10.16106423	     -0.04016098	      7.05799946	     -3.35424685	    -12.03913622	     13.79901119	     13.79901119	     16.01782250	      0.05853858	     -5.75201724	    -11.36303930	      2.79874841	      2.64723182	     -2.82651341	    -13.58242337	    -12.24457182	     26.31600835	     47.12122013	      0.00000000	      0.00000000	     24.21911483	    -20.34239703	      1.45282962	     80.40824122	     47.14904819	      0.00000000	      0.00000000
     41.93714286	     -7.19210918	     -3.65068048	     -3.92070561	      0.95269796	      0.92812875	      0.42107557	     40.42485681	     -7.04716036	     -8.63299348	     40.90348255	     40.90348255	      2.87379266	     -9.18099375	      0.45077616	      6.30642473	     -3.06647394	    -12.26494142	     13.32279784	     13.32279784	     16.29080619	      0.60231853	     -5.92374831	    -11.39569214	      2.59202299	      3.17124363	     -4.80700528	    -13.73509108	    -12.43398616	     25.06945579	     47.16445909	      0.00000000	      0.00000000	     25.25507963	    -20.14144582	      1.38259977	     83.45625842	     47.23239288	      0.00000000	      0.00000000
     41.94857143	     -7.23782792	     -3.38902932	     -3.87286421	      0.95268028	      0.92696900	      0.42167618	     39.72219734	     -6.95979603	     -9.24391721	     37.20193398	     37.20193398	      2.74724180	     -8.07636141	      1.05965521	      5.55196702	     -2.77201687	    -12.56071886	     12.84875806	     12.84875806	     16.56877216	      1.28075465	     -6.15336602	    -11.37943628	      2.34193496	      3.36631730	     -6.57680554	    -13.78373157	    -12.62692320	     23.91640342	     47.20670311	      0.00000000	      0.00000000	     25.82646917	    -20.20624850	      1.12949226	     87.05312767	     47.33983221	      0.00000000	      0.00000000
     41.96000000	     -7.30847027	     -3.20996134	     -3.72358545	      0.95285952	      0.92567646	      0.42237470	     38.83472530	     -6.75742005	     -9.96439016	     33.39203827	     33.39203827	      2.63389836	     -7.01853641	      1.85257260	      4.85426174	     -2.56822531	    -12.58885151	     12.45501998	     12.45501998	     16.91056468	      1.75523652	     -6.33269271	    -11.27565054	      2.22483994	      3.49006873	     -8.34550447	    -13.82651669	    -12.68197566	     23.07264720	     47.22908976	      0.00000000	      0.00000000	     26.52110427	    -20.12732328	      0.85027127	     89.45734227	     47.41607651	      0.00000000	      0.00000000
     41.97142857	     -7.29547110	     -2.83088240	     -3.58058758	      0.95347639	      0.92416885	      0.42310206	     37.90872492	     -6.76930860	    -10.65542646	     29.97230316	     29.97230316	      2.91517773	     -5.48545889	      3.16703894	      3.98742105	     -2.16702764	    -12.90015403	     11.96646634	     11.96646634	     17.30661526	      2.78976288	     -6.64879479	    -11.28613942	      1.85315214	      3.19571160	     -9.84514589	    -13.72941150	    -12.72182911	     22.72693159	     47.22209628	      0.00000000	      0.00000000	     26.22146917	    -20.70470489	      0.10403673	     94.31960839	     47.59011801	      0.00000000	      0.00000000
     41.98285714	     -7.28186633	     -2.64349587	     -3.34786819	      0.95426831	      0.92267703	      0.42399698	     36.78474149	     -6.53916155	    -11.45964165	     26.54667021	     26.54667021	      2.80220975	     -4.41255108	      4.19003040	      3.19641645	     -1.96888835	    -12.90170036	     11.63384999	     11.63384999	     17.62174103	      3.16889068	     -6.76078655	    -11.11408089	      1.69278230	      3.21801539	    -11.60395120	    -13.65283614	    -12.67393209	     22.13805449	     47.22287716	      0.00000000	      0.00000000	     26.89922376	    -20.45732005	     -0.16473976	     96.45824876	     47.66026659	      0.00000000	      0.00000000
